<svg width="95" height="26" viewBox="0 0 95 26" fill="none" xmlns="http://www.w3.org/2000/svg">
<g clip-path="url(#clip0_9_19)">
<path d="M2.06609 23.2283C3.20717 23.2283 4.13219 22.3072 4.13219 21.1709C4.13219 20.0346 3.20717 19.1135 2.06609 19.1135C0.925022 19.1135 0 20.0346 0 21.1709C0 22.3072 0.925022 23.2283 2.06609 23.2283Z" fill="white"/>
<path d="M9.92068 16.197V21.7289C9.92068 23.1347 8.90744 23.7322 7.67005 23.0547L4.47185 18.9793L9.18481 14.4112C9.65569 14.8874 9.91995 15.5287 9.92068 16.197Z" fill="white"/>
<path d="M1.79668 13.6401H7.35872C8.04838 13.6408 8.7085 13.9189 9.18934 14.4112L4.47185 18.9793L0.465327 15.8802C-0.213936 14.648 0.384948 13.6401 1.79668 13.6401Z" fill="white"/>
<path d="M17.6609 4.08458C17.6609 5.2215 18.5864 6.14315 19.7281 6.14315C20.8698 6.14315 21.7953 5.2215 21.7953 4.08458C21.7953 2.94767 20.8698 2.02602 19.7281 2.02602C19.1797 2.02572 18.6538 2.24251 18.266 2.62863C17.8783 3.01475 17.6606 3.53853 17.6609 4.08458V4.08458Z" fill="white"/>
<path d="M14.1242 2.27968C12.8868 1.60326 11.8747 2.19964 11.8747 3.60546V9.13855C11.8755 9.82996 12.1587 10.4913 12.6592 10.9705L17.2907 6.3224L14.1242 2.27968Z" fill="white"/>
<path d="M21.33 9.45421C20.6734 8.94513 20.181 8.56332 19.8527 8.30878C19.2833 7.86736 18.4293 7.20524 17.2907 6.3224L12.6592 10.9705C13.1356 11.4349 13.7756 11.6951 14.4423 11.6954H19.9998C21.4115 11.6954 22.0104 10.6875 21.33 9.45421Z" fill="white"/>
<path d="M19.6794 23.2283C20.8205 23.2283 21.7455 22.3072 21.7455 21.1709C21.7455 20.0346 20.8205 19.1135 19.6794 19.1135C18.5383 19.1135 17.6133 20.0346 17.6133 21.1709C17.6133 22.3072 18.5383 23.2283 19.6794 23.2283Z" fill="white"/>
<path d="M14.628 13.6401H20.1832C21.5949 13.6401 22.1938 14.648 21.5146 15.8802L17.4073 19.0819L12.7758 14.4338C13.2582 13.9281 13.9276 13.6413 14.628 13.6401V13.6401Z" fill="white"/>
<path d="M17.4073 19.0819L14.311 23.0547C13.0736 23.7311 12.0615 23.1347 12.0615 21.7289V16.197C12.0621 15.5394 12.3181 14.9076 12.7758 14.4338L17.4073 19.0819Z" fill="white"/>
<path d="M0.235462 4.08458C0.235462 5.2215 1.16099 6.14315 2.30269 6.14315C3.44439 6.14315 4.36991 5.2215 4.36991 4.08458C4.36991 2.94767 3.44439 2.02602 2.30269 2.02602C1.75443 2.02602 1.22862 2.24291 0.840939 2.62896C0.453259 3.01502 0.235462 3.53862 0.235462 4.08458Z" fill="white"/>
<path d="M9.92061 9.13855V3.60546C9.92061 2.19851 8.90738 1.60214 7.66999 2.27968L4.38688 6.43739L9.09871 11.0032C9.62139 10.5227 9.91925 9.84693 9.92061 9.13855Z" fill="white"/>
<path d="M4.3892 6.4374L0.466455 9.45422C-0.213941 10.6875 0.384943 11.6954 1.79781 11.6954H7.35872C8.00857 11.6944 8.63363 11.4469 9.10669 11.0032L4.3892 6.4374Z" fill="white"/>
</g>
<rect x="37" width="2" height="26" fill="white"/>
<path d="M59.0713 19H56.2852L56.3027 16.9434H59.0713C59.7627 16.9434 60.3457 16.7881 60.8203 16.4775C61.2949 16.1611 61.6523 15.7012 61.8926 15.0977C62.1387 14.4941 62.2617 13.7646 62.2617 12.9092V12.2852C62.2617 11.6289 62.1914 11.0518 62.0508 10.5537C61.916 10.0557 61.7139 9.63672 61.4443 9.29688C61.1748 8.95703 60.8438 8.70215 60.4512 8.53223C60.0586 8.35645 59.6074 8.26855 59.0977 8.26855H56.2324V6.20312H59.0977C59.9531 6.20312 60.7354 6.34961 61.4443 6.64258C62.1592 6.92969 62.7773 7.34277 63.2988 7.88184C63.8203 8.4209 64.2217 9.06543 64.5029 9.81543C64.79 10.5596 64.9336 11.3887 64.9336 12.3027V12.9092C64.9336 13.8174 64.79 14.6465 64.5029 15.3965C64.2217 16.1465 63.8203 16.791 63.2988 17.3301C62.7832 17.8633 62.165 18.2764 61.4443 18.5693C60.7295 18.8564 59.9385 19 59.0713 19ZM57.7793 6.20312V19H55.1426V6.20312H57.7793ZM66.2871 14.3418V14.1572C66.2871 13.46 66.3867 12.8184 66.5859 12.2324C66.7852 11.6406 67.0752 11.1279 67.4561 10.6943C67.8369 10.2607 68.3057 9.92383 68.8623 9.68359C69.4189 9.4375 70.0576 9.31445 70.7783 9.31445C71.499 9.31445 72.1406 9.4375 72.7031 9.68359C73.2656 9.92383 73.7373 10.2607 74.1182 10.6943C74.5049 11.1279 74.7979 11.6406 74.9971 12.2324C75.1963 12.8184 75.2959 13.46 75.2959 14.1572V14.3418C75.2959 15.0332 75.1963 15.6748 74.9971 16.2666C74.7979 16.8525 74.5049 17.3652 74.1182 17.8047C73.7373 18.2383 73.2686 18.5752 72.7119 18.8154C72.1553 19.0557 71.5166 19.1758 70.7959 19.1758C70.0752 19.1758 69.4336 19.0557 68.8711 18.8154C68.3145 18.5752 67.8428 18.2383 67.4561 17.8047C67.0752 17.3652 66.7852 16.8525 66.5859 16.2666C66.3867 15.6748 66.2871 15.0332 66.2871 14.3418ZM68.8184 14.1572V14.3418C68.8184 14.7402 68.8535 15.1123 68.9238 15.458C68.9941 15.8037 69.1055 16.1084 69.2578 16.3721C69.416 16.6299 69.6211 16.832 69.873 16.9785C70.125 17.125 70.4326 17.1982 70.7959 17.1982C71.1475 17.1982 71.4492 17.125 71.7012 16.9785C71.9531 16.832 72.1553 16.6299 72.3076 16.3721C72.46 16.1084 72.5713 15.8037 72.6416 15.458C72.7178 15.1123 72.7559 14.7402 72.7559 14.3418V14.1572C72.7559 13.7705 72.7178 13.4072 72.6416 13.0674C72.5713 12.7217 72.457 12.417 72.2988 12.1533C72.1465 11.8838 71.9443 11.6729 71.6924 11.5205C71.4404 11.3682 71.1357 11.292 70.7783 11.292C70.4209 11.292 70.1162 11.3682 69.8643 11.5205C69.6182 11.6729 69.416 11.8838 69.2578 12.1533C69.1055 12.417 68.9941 12.7217 68.9238 13.0674C68.8535 13.4072 68.8184 13.7705 68.8184 14.1572ZM80.7803 17.1982C81.0908 17.1982 81.3662 17.1396 81.6064 17.0225C81.8467 16.8994 82.0342 16.7295 82.1689 16.5127C82.3096 16.29 82.3828 16.0293 82.3887 15.7305H84.7705C84.7646 16.3984 84.5859 16.9932 84.2344 17.5146C83.8828 18.0303 83.4111 18.4375 82.8193 18.7363C82.2275 19.0293 81.5654 19.1758 80.833 19.1758C80.0947 19.1758 79.4502 19.0527 78.8994 18.8066C78.3545 18.5605 77.9004 18.2207 77.5371 17.7871C77.1738 17.3477 76.9014 16.8379 76.7197 16.2578C76.5381 15.6719 76.4473 15.0449 76.4473 14.377V14.1221C76.4473 13.4482 76.5381 12.8213 76.7197 12.2412C76.9014 11.6553 77.1738 11.1455 77.5371 10.7119C77.9004 10.2725 78.3545 9.92969 78.8994 9.68359C79.4443 9.4375 80.083 9.31445 80.8154 9.31445C81.5947 9.31445 82.2773 9.46387 82.8633 9.7627C83.4551 10.0615 83.918 10.4893 84.252 11.0459C84.5918 11.5967 84.7646 12.25 84.7705 13.0059H82.3887C82.3828 12.6895 82.3154 12.4023 82.1865 12.1445C82.0635 11.8867 81.8818 11.6816 81.6416 11.5293C81.4072 11.3711 81.1172 11.292 80.7715 11.292C80.4023 11.292 80.1006 11.3711 79.8662 11.5293C79.6318 11.6816 79.4502 11.8926 79.3213 12.1621C79.1924 12.4258 79.1016 12.7275 79.0488 13.0674C79.002 13.4014 78.9785 13.7529 78.9785 14.1221V14.377C78.9785 14.7461 79.002 15.1006 79.0488 15.4404C79.0957 15.7803 79.1836 16.082 79.3125 16.3457C79.4473 16.6094 79.6318 16.8174 79.8662 16.9697C80.1006 17.1221 80.4053 17.1982 80.7803 17.1982ZM91.3799 16.3721C91.3799 16.1904 91.3271 16.0264 91.2217 15.8799C91.1162 15.7334 90.9199 15.5986 90.6328 15.4756C90.3516 15.3467 89.9443 15.2295 89.4111 15.124C88.9307 15.0186 88.4824 14.8867 88.0664 14.7285C87.6562 14.5645 87.2988 14.3682 86.9941 14.1396C86.6953 13.9111 86.4609 13.6416 86.291 13.3311C86.1211 13.0146 86.0361 12.6543 86.0361 12.25C86.0361 11.8516 86.1211 11.4766 86.291 11.125C86.4668 10.7734 86.7158 10.4629 87.0381 10.1934C87.3662 9.91797 87.7646 9.7041 88.2334 9.55176C88.708 9.39355 89.2412 9.31445 89.833 9.31445C90.6592 9.31445 91.3682 9.44629 91.96 9.70996C92.5576 9.97363 93.0146 10.3369 93.3311 10.7998C93.6533 11.2568 93.8145 11.7783 93.8145 12.3643H91.2832C91.2832 12.1182 91.2305 11.8984 91.125 11.7051C91.0254 11.5059 90.8672 11.3506 90.6504 11.2393C90.4395 11.1221 90.1641 11.0635 89.8242 11.0635C89.543 11.0635 89.2998 11.1133 89.0947 11.2129C88.8896 11.3066 88.7314 11.4355 88.6201 11.5996C88.5146 11.7578 88.4619 11.9336 88.4619 12.127C88.4619 12.2734 88.4912 12.4053 88.5498 12.5225C88.6143 12.6338 88.7168 12.7363 88.8574 12.8301C88.998 12.9238 89.1797 13.0117 89.4023 13.0938C89.6309 13.1699 89.9121 13.2402 90.2461 13.3047C90.9316 13.4453 91.5439 13.6299 92.083 13.8584C92.6221 14.0811 93.0498 14.3857 93.3662 14.7725C93.6826 15.1533 93.8408 15.6543 93.8408 16.2754C93.8408 16.6973 93.7471 17.084 93.5596 17.4355C93.3721 17.7871 93.1025 18.0947 92.751 18.3584C92.3994 18.6162 91.9775 18.8184 91.4854 18.9648C90.999 19.1055 90.4512 19.1758 89.8418 19.1758C88.957 19.1758 88.207 19.0176 87.5918 18.7012C86.9824 18.3848 86.5195 17.9834 86.2031 17.4971C85.8926 17.0049 85.7373 16.501 85.7373 15.9854H88.1367C88.1484 16.3311 88.2363 16.6094 88.4004 16.8203C88.5703 17.0312 88.7842 17.1836 89.042 17.2773C89.3057 17.3711 89.5898 17.418 89.8945 17.418C90.2227 17.418 90.4951 17.374 90.7119 17.2861C90.9287 17.1924 91.0928 17.0693 91.2041 16.917C91.3213 16.7588 91.3799 16.5771 91.3799 16.3721Z" fill="white"/>
<defs>
<clipPath id="clip0_9_19">
<rect width="22" height="21.5326" fill="white" transform="translate(0 2)"/>
</clipPath>
</defs>
</svg>
